Coordinates
version=1
nRows=8
nColumns=40
inDegrees=yes

Units are S.I. units (second, meters, Newtons, ...)
Angles are in degrees.

endheader
time	pelvis_tilt	pelvis_list	pelvis_rotation	pelvis_tx	pelvis_ty	pelvis_tz	hip_flexion_r	hip_adduction_r	hip_rotation_r	knee_angle_r	knee_angle_r_beta	ankle_angle_r	subtalar_angle_r	mtp_angle_r	hip_flexion_l	hip_adduction_l	hip_rotation_l	knee_angle_l	knee_angle_l_beta	ankle_angle_l	subtalar_angle_l	mtp_angle_l	lumbar_extension	lumbar_bending	lumbar_rotation	arm_flex_r	arm_add_r	arm_rot_r	elbow_flex_r	pro_sup_r	wrist_flex_r	wrist_dev_r	arm_flex_l	arm_add_l	arm_rot_l	elbow_flex_l	pro_sup_l	wrist_flex_l	wrist_dev_l
     46.55692857	     -4.59210123	     -5.10646630	      5.66765428	      0.93933698	      0.91860392	      0.45640431	     -2.26918760	      6.31135959	    -20.55780017	      7.69023342	      7.69023342	     16.76037200	      2.53995804	     -3.21071647	     32.93515683	     -5.40598681	     -5.51768342	     19.86161922	     19.86161922	      4.77572862	     -9.93361025	      7.70073305	     -6.63265953	      6.86727447	      4.82495304	     38.96191781	    -15.72156395	    -13.36996777	     69.35575015	     45.21779013	      0.00000000	      0.00000000	    -10.53258877	     -5.69109781	      4.65182326	     22.07511506	     44.89434888	      0.00000000	      0.00000000
     46.56885714	     -4.69774562	     -5.00544808	      5.43527494	      0.94076265	      0.91774886	      0.45541648	     -2.77142228	      6.12637834	    -20.32412785	      7.72639202	      7.72639202	     17.05375713	      2.66843383	     -3.24137926	     32.48244897	     -5.29552200	     -5.76089401	     20.62921882	     20.62921882	      4.32215839	    -10.34598270	      7.78433796	     -6.33224754	      6.68337335	      4.77155404	     38.51039947	    -15.52630384	    -13.31535995	     69.30194603	     45.21612024	      0.00000000	      0.00000000	    -10.44882238	     -5.82054879	      4.61995505	     22.09651463	     44.90515745	      0.00000000	      0.00000000
     46.58078571	     -4.81154612	     -4.97067146	      5.19687602	      0.94232903	      0.91682201	      0.45429829	     -3.22614037	      5.95354761	    -20.31982667	      7.87172621	      7.87172621	     17.52783937	      3.22105151	     -2.72197096	     32.16896191	     -5.13554913	     -5.32868780	     21.54126762	     21.54126762	      3.83206705	    -11.65209625	      7.85034625	     -6.02291789	      6.58059384	      4.93947716	     37.63902601	    -15.55527990	    -13.35148666	     69.84819312	     45.20144734	      0.00000000	      0.00000000	    -10.26656988	     -5.96561954	      4.35500337	     22.32579367	     44.98423181	      0.00000000	      0.00000000
     46.59271429	     -4.88095809	     -4.81768143	      4.90473110	      0.94394517	      0.91619209	      0.45320398	     -3.69214239	      5.65343675	    -20.08678448	      8.07797576	      8.07797576	     17.77946838	      3.33844260	     -2.66476081	     31.67373398	     -4.98929197	     -5.41521755	     22.14780088	     22.14780088	      3.62207149	    -12.06500686	      7.83204953	     -5.79626639	      6.34872677	      4.92749421	     36.89657170	    -15.27592932	    -13.25774954	     69.78573013	     45.19780252	      0.00000000	      0.00000000	    -10.05933509	     -6.13123243	      4.28239046	     22.42091586	     45.00657234	      0.00000000	      0.00000000
     46.60464286	     -5.01833150	     -4.67031985	      4.63002039	      0.94543473	      0.91569526	      0.45193500	     -3.82137513	      5.21296688	    -20.13901357	      8.87327007	      8.87327007	     18.77728262	      3.85624196	     -0.86384198	     31.19926618	     -4.71526244	     -5.06734177	     22.44620360	     22.44620360	      2.96757203	    -13.26859969	      7.18290915	     -5.57979370	      6.13030472	      5.36198701	     35.34989207	    -15.65029088	    -13.42149822	     71.19212863	     45.17092261	      0.00000000	      0.00000000	     -9.49776448	     -6.21582915	      3.30345582	     22.77969927	     45.27247343	      0.00000000	      0.00000000
     46.61657143	     -5.12425331	     -4.50952056	      4.32916965	      0.94682915	      0.91540675	      0.45070268	     -3.90520246	      4.76848615	    -19.79847489	      9.70484891	      9.70484891	     19.06560428	      3.63000161	     -0.85636810	     30.79540258	     -4.53791545	     -5.00292361	     22.85006522	     22.85006522	      2.94701196	    -13.82132871	      6.99650681	     -5.36712725	      5.89847380	      5.37454281	     34.41786363	    -15.51713992	    -13.31887680	     70.84768592	     45.17903042	      0.00000000	      0.00000000	     -9.03935074	     -6.37333414	      3.10134128	     22.93382445	     45.33068444	      0.00000000	      0.00000000
     46.62850000	     -5.18066037	     -4.31720615	      4.06813102	      0.94814760	      0.91548518	      0.44927768	     -3.98231580	      4.26551994	    -19.44776014	     10.62290477	     10.62290477	     19.27624642	      3.35635951	     -0.91057622	     30.35776519	     -4.31203091	     -4.91927425	     23.18807149	     23.18807149	      3.07365472	    -14.35693969	      6.75952696	     -5.28749401	      5.65775795	      5.23727019	     33.39226389	    -15.38715456	    -13.19438012	     70.53101012	     45.18341822	      0.00000000	      0.00000000	     -8.50585658	     -6.55172414	      2.93821579	     23.13397901	     45.37805974	      0.00000000	      0.00000000
     46.64042857	     -5.14350955	     -4.28258831	      3.90084488	      0.94957262	      0.91608049	      0.44776944	     -4.26093370	      3.98987607	    -19.28318272	     11.28081092	     11.28081092	     19.12716550	      3.21064967	     -0.93405519	     29.82632035	     -4.24607302	     -4.81655834	     23.43894607	     23.43894607	      3.45607932	    -14.66559995	      6.55201040	     -5.25007357	      5.62764957	      4.92106129	     32.32739343	    -15.01849155	    -13.04163764	     70.18880497	     45.18503788	      0.00000000	      0.00000000	     -7.87245425	     -6.63817494	      2.89861545	     23.36187894	     45.39871126	      0.00000000	      0.00000000
